<?xml version="1.0" encoding="utf-8"?>
<!-- Generator: Adobe Illustrator 22.0.0, SVG Export Plug-In . SVG Version: 6.00 Build 0)  -->
<svg version="1.1" id="Layer_1" xmlns="http://www.w3.org/2000/svg" xmlns:xlink="http://www.w3.org/1999/xlink" x="0px" y="0px"
	 viewBox="0 0 85 85" style="enable-background:new 0 0 85 85;" xml:space="preserve">
<style type="text/css">
	.st0{fill:#E6E6E5;}
</style>
<g>
	<path class="st0" d="M82.1,45.7L66.4,61.4c0.8-2.5,1-5.1,0.3-7.7c0-0.1,0-0.1-0.1-0.1L77.2,43c0.4-0.4,0.4-1.1,0-1.5l-8.6-8.6
		l-1.1-1.1c0.4-1.8,0.3-3.7-0.2-5.5c-0.5-2-1.6-3.8-3-5.2l4,4l13.8,13.8C84,40.7,84,43.8,82.1,45.7z"/>
	<path class="st0" d="M64.3,21.1l-0.2-0.2l0.1,0.1C64.2,21,64.3,21,64.3,21.1z"/>
	<path class="st0" d="M63.9,63.6c-0.5,0.7-1,1.3-1.5,1.9L50.9,76.9l-6,6c-1.9,1.9-5,1.9-6.9,0L20.2,65c0.9,0.9,1.9,1.6,3,2.1
		c0.5,0.2,0.9,0.5,1.4,0.6s1,0.3,1.5,0.4c0.8,0.2,1.6,0.2,2.4,0.2s1.6-0.1,2.5-0.2l1.1,1.1l8.6,8.6c0.4,0.4,1.1,0.4,1.5,0l7-7
		l9.3-9.3c1.6-1.6,2.3-4,1.7-6.2c-0.3-1.1-0.8-2.1-1.7-2.9c-1.2-1.2-2.9-1.9-4.6-1.9c-0.3,0-0.6,0-0.8,0.1h-0.1
		c-1.3,0.2-2.5,0.7-3.5,1.6c-0.1,0.1-0.2,0.1-0.2,0.2l-2.9,2.9l-1.1,1.1l0,0L43,59l-5,5L37,65l0,0c-1.3,1.2-2.8,2.2-4.4,2.8
		c-0.5,0.2-1,0.3-1.5,0.4l-14-14c0.1-0.5,0.2-1,0.4-1.5c0.3-0.9,0.7-1.8,1.3-2.6c0.5-0.7,1-1.3,1.5-1.9l6.6-6.6
		c0.3,0.1,0.6,0.2,0.9,0.2c0.9,0.2,1.8,0.3,2.7,0.3c1.5,0,2.9-0.2,4.2-0.7l-2.1,2.1l-8.6,8.6c-1.4,1.4-2.1,3.4-1.9,5.4
		c0.1,0.3,0.1,0.6,0.2,0.8c0.3,1.1,0.8,2.1,1.7,2.9c1,1,2.3,1.6,3.7,1.9c0.3,0.1,0.6,0.1,0.8,0.1s0.6,0,0.8-0.1
		c1.4-0.2,2.7-0.8,3.7-1.9l2.2-2.2l1.1-1.1l0,0l5-5l2.5-2.5l1.1-1.1l0.7-0.7c0.1-0.1,0.2-0.2,0.3-0.3l0,0c2.9-2.7,6.9-3.7,10.5-2.9
		c0,0,0,0,0.1,0c0.5,0.1,1,0.2,1.5,0.4c0,0,0,0,0.1,0c0.5,0.2,0.9,0.3,1.4,0.6c1.1,0.6,2.1,1.3,3,2.2c1.5,1.5,2.5,3.3,3,5.3
		C66.3,57.3,65.7,60.8,63.9,63.6z"/>
	<path class="st0" d="M20.1,64.9L2.3,47.1c-1.9-1.9-1.9-5,0-6.9L18,24.5c-0.8,2.5-1,5.1-0.3,7.7c0,0.1,0,0.1,0.1,0.1L7.2,42.9
		c-0.4,0.4-0.4,1.1,0,1.5l9.7,9.7c-0.4,1.8-0.3,3.7,0.2,5.5C17.6,61.7,18.7,63.5,20.1,64.9z"/>
	<path class="st0" d="M20.1,64.9l-4-4c-0.1-0.3-0.2-0.6-0.3-0.8c-0.6-2-0.6-4.1-0.2-6.1l0.2-0.8l1.1,1.1c-0.4,1.8-0.3,3.7,0.2,5.5
		C17.6,61.7,18.7,63.5,20.1,64.9z"/>
	<path class="st0" d="M31,68.2l1.1,1.1l-0.8,0.2c-0.9,0.2-1.8,0.3-2.8,0.3c-0.9,0-1.8-0.1-2.7-0.3c-0.5-0.1-1.1-0.2-1.6-0.5L20.2,65
		c0.9,0.9,1.9,1.6,3,2.1c0.5,0.2,0.9,0.5,1.4,0.6s1,0.3,1.5,0.4c0.8,0.2,1.6,0.2,2.4,0.2C29.3,68.5,30.2,68.4,31,68.2z"/>
	<path class="st0" d="M31,68.2c-0.8,0.2-1.6,0.2-2.5,0.2c-0.8,0-1.6-0.1-2.4-0.2c-0.5-0.1-1-0.2-1.5-0.4c-0.5-0.2-1-0.3-1.4-0.6
		c-1.1-0.6-2.1-1.3-3-2.1L20,64.9c-1.4-1.5-2.4-3.3-3-5.2c-0.5-1.8-0.5-3.7-0.2-5.5L31,68.2z"/>
	<path class="st0" d="M67.4,31.8c-0.1,0.5-0.2,1-0.4,1.5c-0.3,0.9-0.7,1.8-1.3,2.6c-0.5,0.7-1,1.3-1.5,1.9l-6.7,6.7
		c-0.3-0.1-0.6-0.2-0.9-0.2c-2.4-0.5-4.7-0.3-6.9,0.4l1.4-1.4l9.3-9.3c1.4-1.4,2.1-3.4,1.9-5.4c-0.1-0.3-0.1-0.6-0.2-0.8
		c-0.3-1.1-0.8-2.1-1.7-2.9c-1-1-2.3-1.7-3.7-1.9c-0.3-0.1-0.6-0.1-0.8-0.1s-0.6,0-0.8,0.1c-1.4,0.2-2.7,0.8-3.7,1.9l-2.9,2.9
		l-1.1,1.1l0,0L43,33l-3.2,3.2l-1.1,1.1l0,0c-0.1,0.1-0.2,0.2-0.3,0.3c-2.2,2-5.1,3.2-8,3.2c-0.8,0-1.6-0.1-2.4-0.2c0,0,0,0-0.1,0
		c-0.5-0.1-1-0.2-1.5-0.4c0,0,0,0-0.1,0c-0.5-0.2-0.9-0.3-1.4-0.6c-1.1-0.6-2.1-1.3-3-2.2c-1.5-1.5-2.5-3.3-3-5.3
		c-0.9-3.3-0.3-6.8,1.6-9.6c0.5-0.7,1-1.3,1.5-1.9L32.8,9.8l6.7-6.7c1.9-1.9,5-1.9,6.9,0l17.8,17.8c-0.9-0.9-1.9-1.6-3-2.1
		c-0.5-0.2-0.9-0.5-1.4-0.6c-0.5-0.2-1-0.3-1.5-0.4c-1.6-0.3-3.3-0.3-4.8,0l-9.7-9.7c-0.4-0.4-1.1-0.4-1.5,0l-7.8,7.8l-8.6,8.6
		c-1.6,1.6-2.3,4-1.7,6.2c0.3,1.1,0.8,2.1,1.7,2.9c1.2,1.2,2.9,1.9,4.6,1.9c0.3,0,0.6,0,0.8-0.1h0.1c1.3-0.2,2.5-0.7,3.5-1.6
		c0.1-0.1,0.2-0.1,0.2-0.2l2.2-2.2l1.1-1.1l0,0l3.2-3.2l4.3-4.2l1.1-1.1l0.7-0.7c1.3-1.3,2.8-2.3,4.4-2.8c0.5-0.2,1-0.3,1.5-0.4
		L67.4,31.8z"/>
	<path class="st0" d="M68.7,32.1l-0.2,0.8l-1.1-1.1c0.4-1.8,0.3-3.7-0.2-5.5c-0.5-2-1.6-3.8-3-5.2l4,4c0.1,0.3,0.2,0.6,0.3,0.8
		C69.1,27.9,69.2,30,68.7,32.1z"/>
	<path class="st0" d="M53.4,17.8l-1.1-1.1l0.8-0.2c0.9-0.2,1.8-0.3,2.7-0.3s1.8,0.1,2.7,0.3c0.5,0.1,1.1,0.2,1.6,0.5l4.1,4.1
		c-0.9-0.9-1.9-1.6-3-2.1c-0.5-0.2-0.9-0.5-1.4-0.6c-0.5-0.2-1-0.3-1.5-0.4C56.6,17.4,55,17.4,53.4,17.8z"/>
	<path class="st0" d="M67.4,31.8l-14-14c1.6-0.3,3.3-0.3,4.8,0c0.5,0.1,1,0.2,1.5,0.4c0.5,0.2,1,0.3,1.4,0.6c1.1,0.6,2.1,1.2,3,2.1
		l0.2,0.2c1.4,1.5,2.4,3.3,3,5.2C67.8,28.1,67.8,30,67.4,31.8z"/>
</g>
<g>
	<path class="st0" d="M83.1,45.7L67.4,61.4c0.8-2.5,1-5.1,0.3-7.7c0-0.1,0-0.1-0.1-0.1L78.2,43c0.4-0.4,0.4-1.1,0-1.5l-8.6-8.6
		l-1.1-1.1c0.4-1.8,0.3-3.7-0.2-5.5c-0.5-2-1.6-3.8-3-5.2l4,4l13.8,13.8C85,40.7,85,43.8,83.1,45.7z"/>
	<path class="st0" d="M65.3,21.1l-0.2-0.2l0.1,0.1C65.2,21,65.3,21,65.3,21.1z"/>
	<path class="st0" d="M64.9,63.6c-0.5,0.7-1,1.3-1.5,1.9L51.9,76.9l-6,6c-1.9,1.9-5,1.9-6.9,0L21.2,65c0.9,0.9,1.9,1.6,3,2.1
		c0.5,0.2,0.9,0.5,1.4,0.6s1,0.3,1.5,0.4c0.8,0.2,1.6,0.2,2.4,0.2s1.6-0.1,2.5-0.2l1.1,1.1l8.6,8.6c0.4,0.4,1.1,0.4,1.5,0l7-7
		l9.3-9.3c1.6-1.6,2.3-4,1.7-6.2c-0.3-1.1-0.8-2.1-1.7-2.9c-1.2-1.2-2.9-1.9-4.6-1.9c-0.3,0-0.6,0-0.8,0.1h-0.1
		c-1.3,0.2-2.5,0.7-3.5,1.6c-0.1,0.1-0.2,0.1-0.2,0.2l-2.9,2.9l-1.1,1.1l0,0L44,59l-5,5L38,65l0,0c-1.3,1.2-2.8,2.2-4.4,2.8
		c-0.5,0.2-1,0.3-1.5,0.4l-14-14c0.1-0.5,0.2-1,0.4-1.5c0.3-0.9,0.7-1.8,1.3-2.6c0.5-0.7,1-1.3,1.5-1.9l6.6-6.6
		c0.3,0.1,0.6,0.2,0.9,0.2c0.9,0.2,1.8,0.3,2.7,0.3c1.5,0,2.9-0.2,4.2-0.7l-2.1,2.1l-8.6,8.6c-1.4,1.4-2.1,3.4-1.9,5.4
		c0.1,0.3,0.1,0.6,0.2,0.8c0.3,1.1,0.8,2.1,1.7,2.9c1,1,2.3,1.6,3.7,1.9c0.3,0.1,0.6,0.1,0.8,0.1s0.6,0,0.8-0.1
		c1.4-0.2,2.7-0.8,3.7-1.9l2.2-2.2l1.1-1.1l0,0l5-5l2.5-2.5l1.1-1.1l0.7-0.7c0.1-0.1,0.2-0.2,0.3-0.3l0,0c2.9-2.7,6.9-3.7,10.5-2.9
		c0,0,0,0,0.1,0c0.5,0.1,1,0.2,1.5,0.4c0,0,0,0,0.1,0c0.5,0.2,0.9,0.3,1.4,0.6c1.1,0.6,2.1,1.3,3,2.2c1.5,1.5,2.5,3.3,3,5.3
		C67.3,57.3,66.7,60.8,64.9,63.6z"/>
	<path class="st0" d="M21.1,64.9L3.3,47.1c-1.9-1.9-1.9-5,0-6.9L19,24.5c-0.8,2.5-1,5.1-0.3,7.7c0,0.1,0,0.1,0.1,0.1L8.2,42.9
		c-0.4,0.4-0.4,1.1,0,1.5l9.7,9.7c-0.4,1.8-0.3,3.7,0.2,5.5C18.6,61.7,19.7,63.5,21.1,64.9z"/>
	<path class="st0" d="M21.1,64.9l-4-4c-0.1-0.3-0.2-0.6-0.3-0.8c-0.6-2-0.6-4.1-0.2-6.1l0.2-0.8l1.1,1.1c-0.4,1.8-0.3,3.7,0.2,5.5
		C18.6,61.7,19.7,63.5,21.1,64.9z"/>
	<path class="st0" d="M32,68.2l1.1,1.1l-0.8,0.2c-0.9,0.2-1.8,0.3-2.8,0.3c-0.9,0-1.8-0.1-2.7-0.3c-0.5-0.1-1.1-0.2-1.6-0.5L21.2,65
		c0.9,0.9,1.9,1.6,3,2.1c0.5,0.2,0.9,0.5,1.4,0.6s1,0.3,1.5,0.4c0.8,0.2,1.6,0.2,2.4,0.2C30.3,68.5,31.2,68.4,32,68.2z"/>
	<path class="st0" d="M32,68.2c-0.8,0.2-1.6,0.2-2.5,0.2c-0.8,0-1.6-0.1-2.4-0.2c-0.5-0.1-1-0.2-1.5-0.4c-0.5-0.2-1-0.3-1.4-0.6
		c-1.1-0.6-2.1-1.3-3-2.1L21,64.9c-1.4-1.5-2.4-3.3-3-5.2c-0.5-1.8-0.5-3.7-0.2-5.5L32,68.2z"/>
	<path class="st0" d="M68.4,31.8c-0.1,0.5-0.2,1-0.4,1.5c-0.3,0.9-0.7,1.8-1.3,2.6c-0.5,0.7-1,1.3-1.5,1.9l-6.7,6.7
		c-0.3-0.1-0.6-0.2-0.9-0.2c-2.4-0.5-4.7-0.3-6.9,0.4l1.4-1.4l9.3-9.3c1.4-1.4,2.1-3.4,1.9-5.4c-0.1-0.3-0.1-0.6-0.2-0.8
		c-0.3-1.1-0.8-2.1-1.7-2.9c-1-1-2.3-1.7-3.7-1.9c-0.3-0.1-0.6-0.1-0.8-0.1s-0.6,0-0.8,0.1c-1.4,0.2-2.7,0.8-3.7,1.9l-2.9,2.9
		l-1.1,1.1l0,0L44,33l-3.2,3.2l-1.1,1.1l0,0c-0.1,0.1-0.2,0.2-0.3,0.3c-2.2,2-5.1,3.2-8,3.2c-0.8,0-1.6-0.1-2.4-0.2c0,0,0,0-0.1,0
		c-0.5-0.1-1-0.2-1.5-0.4c0,0,0,0-0.1,0c-0.5-0.2-0.9-0.3-1.4-0.6c-1.1-0.6-2.1-1.3-3-2.2c-1.5-1.5-2.5-3.3-3-5.3
		c-0.9-3.3-0.3-6.8,1.6-9.6c0.5-0.7,1-1.3,1.5-1.9L33.8,9.8l6.7-6.7c1.9-1.9,5-1.9,6.9,0l17.8,17.8c-0.9-0.9-1.9-1.6-3-2.1
		c-0.5-0.2-0.9-0.5-1.4-0.6c-0.5-0.2-1-0.3-1.5-0.4c-1.6-0.3-3.3-0.3-4.8,0l-9.7-9.7c-0.4-0.4-1.1-0.4-1.5,0l-7.8,7.8l-8.6,8.6
		c-1.6,1.6-2.3,4-1.7,6.2c0.3,1.1,0.8,2.1,1.7,2.9c1.2,1.2,2.9,1.9,4.6,1.9c0.3,0,0.6,0,0.8-0.1h0.1c1.3-0.2,2.5-0.7,3.5-1.6
		c0.1-0.1,0.2-0.1,0.2-0.2l2.2-2.2l1.1-1.1l0,0l3.2-3.2l4.3-4.2l1.1-1.1l0.7-0.7c1.3-1.3,2.8-2.3,4.4-2.8c0.5-0.2,1-0.3,1.5-0.4
		L68.4,31.8z"/>
	<path class="st0" d="M69.7,32.1l-0.2,0.8l-1.1-1.1c0.4-1.8,0.3-3.7-0.2-5.5c-0.5-2-1.6-3.8-3-5.2l4,4c0.1,0.3,0.2,0.6,0.3,0.8
		C70.1,27.9,70.2,30,69.7,32.1z"/>
	<path class="st0" d="M54.4,17.8l-1.1-1.1l0.8-0.2c0.9-0.2,1.8-0.3,2.7-0.3s1.8,0.1,2.7,0.3c0.5,0.1,1.1,0.2,1.6,0.5l4.1,4.1
		c-0.9-0.9-1.9-1.6-3-2.1c-0.5-0.2-0.9-0.5-1.4-0.6c-0.5-0.2-1-0.3-1.5-0.4C57.6,17.4,56,17.4,54.4,17.8z"/>
	<path class="st0" d="M68.4,31.8l-14-14c1.6-0.3,3.3-0.3,4.8,0c0.5,0.1,1,0.2,1.5,0.4c0.5,0.2,1,0.3,1.4,0.6c1.1,0.6,2.1,1.2,3,2.1
		l0.2,0.2c1.4,1.5,2.4,3.3,3,5.2C68.8,28.1,68.8,30,68.4,31.8z"/>
</g>
<g>
	<path class="st0" d="M82.1,45.7L66.4,61.4c0.8-2.5,1-5.1,0.3-7.7c0-0.1,0-0.1-0.1-0.1L77.2,43c0.4-0.4,0.4-1.1,0-1.5l-8.6-8.6
		l-1.1-1.1c0.4-1.8,0.3-3.7-0.2-5.5c-0.5-2-1.6-3.8-3-5.2l4,4l13.8,13.8C84,40.7,84,43.8,82.1,45.7z"/>
	<path class="st0" d="M64.3,21.1l-0.2-0.2l0.1,0.1C64.2,21,64.3,21,64.3,21.1z"/>
	<path class="st0" d="M63.9,63.6c-0.5,0.7-1,1.3-1.5,1.9L50.9,76.9l-6,6c-1.9,1.9-5,1.9-6.9,0L20.2,65c0.9,0.9,1.9,1.6,3,2.1
		c0.5,0.2,0.9,0.5,1.4,0.6s1,0.3,1.5,0.4c0.8,0.2,1.6,0.2,2.4,0.2s1.6-0.1,2.5-0.2l1.1,1.1l8.6,8.6c0.4,0.4,1.1,0.4,1.5,0l7-7
		l9.3-9.3c1.6-1.6,2.3-4,1.7-6.2c-0.3-1.1-0.8-2.1-1.7-2.9c-1.2-1.2-2.9-1.9-4.6-1.9c-0.3,0-0.6,0-0.8,0.1h-0.1
		c-1.3,0.2-2.5,0.7-3.5,1.6c-0.1,0.1-0.2,0.1-0.2,0.2l-2.9,2.9l-1.1,1.1l0,0L43,59l-5,5L37,65l0,0c-1.3,1.2-2.8,2.2-4.4,2.8
		c-0.5,0.2-1,0.3-1.5,0.4l-14-14c0.1-0.5,0.2-1,0.4-1.5c0.3-0.9,0.7-1.8,1.3-2.6c0.5-0.7,1-1.3,1.5-1.9l6.6-6.6
		c0.3,0.1,0.6,0.2,0.9,0.2c0.9,0.2,1.8,0.3,2.7,0.3c1.5,0,2.9-0.2,4.2-0.7l-2.1,2.1l-8.6,8.6c-1.4,1.4-2.1,3.4-1.9,5.4
		c0.1,0.3,0.1,0.6,0.2,0.8c0.3,1.1,0.8,2.1,1.7,2.9c1,1,2.3,1.6,3.7,1.9c0.3,0.1,0.6,0.1,0.8,0.1s0.6,0,0.8-0.1
		c1.4-0.2,2.7-0.8,3.7-1.9l2.2-2.2l1.1-1.1l0,0l5-5l2.5-2.5l1.1-1.1l0.7-0.7c0.1-0.1,0.2-0.2,0.3-0.3l0,0c2.9-2.7,6.9-3.7,10.5-2.9
		c0,0,0,0,0.1,0c0.5,0.1,1,0.2,1.5,0.4c0,0,0,0,0.1,0c0.5,0.2,0.9,0.3,1.4,0.6c1.1,0.6,2.1,1.3,3,2.2c1.5,1.5,2.5,3.3,3,5.3
		C66.3,57.3,65.7,60.8,63.9,63.6z"/>
	<path class="st0" d="M20.1,64.9L2.3,47.1c-1.9-1.9-1.9-5,0-6.9L18,24.5c-0.8,2.5-1,5.1-0.3,7.7c0,0.1,0,0.1,0.1,0.1L7.2,42.9
		c-0.4,0.4-0.4,1.1,0,1.5l9.7,9.7c-0.4,1.8-0.3,3.7,0.2,5.5C17.6,61.7,18.7,63.5,20.1,64.9z"/>
	<path class="st0" d="M20.1,64.9l-4-4c-0.1-0.3-0.2-0.6-0.3-0.8c-0.6-2-0.6-4.1-0.2-6.1l0.2-0.8l1.1,1.1c-0.4,1.8-0.3,3.7,0.2,5.5
		C17.6,61.7,18.7,63.5,20.1,64.9z"/>
	<path class="st0" d="M31,68.2l1.1,1.1l-0.8,0.2c-0.9,0.2-1.8,0.3-2.8,0.3c-0.9,0-1.8-0.1-2.7-0.3c-0.5-0.1-1.1-0.2-1.6-0.5L20.2,65
		c0.9,0.9,1.9,1.6,3,2.1c0.5,0.2,0.9,0.5,1.4,0.6s1,0.3,1.5,0.4c0.8,0.2,1.6,0.2,2.4,0.2C29.3,68.5,30.2,68.4,31,68.2z"/>
	<path class="st0" d="M31,68.2c-0.8,0.2-1.6,0.2-2.5,0.2c-0.8,0-1.6-0.1-2.4-0.2c-0.5-0.1-1-0.2-1.5-0.4c-0.5-0.2-1-0.3-1.4-0.6
		c-1.1-0.6-2.1-1.3-3-2.1L20,64.9c-1.4-1.5-2.4-3.3-3-5.2c-0.5-1.8-0.5-3.7-0.2-5.5L31,68.2z"/>
	<path class="st0" d="M67.4,31.8c-0.1,0.5-0.2,1-0.4,1.5c-0.3,0.9-0.7,1.8-1.3,2.6c-0.5,0.7-1,1.3-1.5,1.9l-6.7,6.7
		c-0.3-0.1-0.6-0.2-0.9-0.2c-2.4-0.5-4.7-0.3-6.9,0.4l1.4-1.4l9.3-9.3c1.4-1.4,2.1-3.4,1.9-5.4c-0.1-0.3-0.1-0.6-0.2-0.8
		c-0.3-1.1-0.8-2.1-1.7-2.9c-1-1-2.3-1.7-3.7-1.9c-0.3-0.1-0.6-0.1-0.8-0.1s-0.6,0-0.8,0.1c-1.4,0.2-2.7,0.8-3.7,1.9l-2.9,2.9
		l-1.1,1.1l0,0L43,33l-3.2,3.2l-1.1,1.1l0,0c-0.1,0.1-0.2,0.2-0.3,0.3c-2.2,2-5.1,3.2-8,3.2c-0.8,0-1.6-0.1-2.4-0.2c0,0,0,0-0.1,0
		c-0.5-0.1-1-0.2-1.5-0.4c0,0,0,0-0.1,0c-0.5-0.2-0.9-0.3-1.4-0.6c-1.1-0.6-2.1-1.3-3-2.2c-1.5-1.5-2.5-3.3-3-5.3
		c-0.9-3.3-0.3-6.8,1.6-9.6c0.5-0.7,1-1.3,1.5-1.9L32.8,9.8l6.7-6.7c1.9-1.9,5-1.9,6.9,0l17.8,17.8c-0.9-0.9-1.9-1.6-3-2.1
		c-0.5-0.2-0.9-0.5-1.4-0.6c-0.5-0.2-1-0.3-1.5-0.4c-1.6-0.3-3.3-0.3-4.8,0l-9.7-9.7c-0.4-0.4-1.1-0.4-1.5,0l-7.8,7.8l-8.6,8.6
		c-1.6,1.6-2.3,4-1.7,6.2c0.3,1.1,0.8,2.1,1.7,2.9c1.2,1.2,2.9,1.9,4.6,1.9c0.3,0,0.6,0,0.8-0.1h0.1c1.3-0.2,2.5-0.7,3.5-1.6
		c0.1-0.1,0.2-0.1,0.2-0.2l2.2-2.2l1.1-1.1l0,0l3.2-3.2l4.3-4.2l1.1-1.1l0.7-0.7c1.3-1.3,2.8-2.3,4.4-2.8c0.5-0.2,1-0.3,1.5-0.4
		L67.4,31.8z"/>
	<path class="st0" d="M68.7,32.1l-0.2,0.8l-1.1-1.1c0.4-1.8,0.3-3.7-0.2-5.5c-0.5-2-1.6-3.8-3-5.2l4,4c0.1,0.3,0.2,0.6,0.3,0.8
		C69.1,27.9,69.2,30,68.7,32.1z"/>
	<path class="st0" d="M53.4,17.8l-1.1-1.1l0.8-0.2c0.9-0.2,1.8-0.3,2.7-0.3s1.8,0.1,2.7,0.3c0.5,0.1,1.1,0.2,1.6,0.5l4.1,4.1
		c-0.9-0.9-1.9-1.6-3-2.1c-0.5-0.2-0.9-0.5-1.4-0.6c-0.5-0.2-1-0.3-1.5-0.4C56.6,17.4,55,17.4,53.4,17.8z"/>
	<path class="st0" d="M67.4,31.8l-14-14c1.6-0.3,3.3-0.3,4.8,0c0.5,0.1,1,0.2,1.5,0.4c0.5,0.2,1,0.3,1.4,0.6c1.1,0.6,2.1,1.2,3,2.1
		l0.2,0.2c1.4,1.5,2.4,3.3,3,5.2C67.8,28.1,67.8,30,67.4,31.8z"/>
</g>
</svg>
