<?xml version="1.0" encoding="utf-8"?>
<!-- Generator: Adobe Illustrator 22.0.0, SVG Export Plug-In . SVG Version: 6.00 Build 0)  -->
<svg version="1.1" id="Layer_1" xmlns="http://www.w3.org/2000/svg" xmlns:xlink="http://www.w3.org/1999/xlink" x="0px" y="0px"
	 viewBox="0 0 85 42.5" style="enable-background:new 0 0 85 42.5;" xml:space="preserve">
<style type="text/css">
	.st0{fill:#07B2E7;}
	.st1{fill:#1F1E21;}
	.st2{fill:#167FC0;}
	.st3{fill:#1E4995;}
	.st4{fill:#3C93D0;}
	.st5{enable-background:new    ;}
	.st6{fill:#BDBEC0;}
	.st7{font-family:'SitkaText-Bold';}
	.st8{font-size:8.5618px;}
</style>
<g>
	<path class="st0" d="M41.1,22.5l-7.9,7.9c0.4-1.3,0.5-2.6,0.1-3.9c0,0,0,0,0,0l5.3-5.3c0.2-0.2,0.2-0.5,0-0.8l-4.4-4.3l-0.6-0.5
		c0.2-0.9,0.2-1.8,0-2.8c-0.2-1-0.8-1.9-1.5-2.6l2,2l6.9,6.9C42.1,20,42.1,21.6,41.1,22.5z"/>
	<g>
		<g>
			<path class="st1" d="M32.2,10.2L32.2,10.2L32.2,10.2C32.2,10.1,32.2,10.1,32.2,10.2z"/>
			<path class="st2" d="M32,31.5c-0.2,0.3-0.5,0.6-0.8,0.9l-5.7,5.7l-3,3c-1,1-2.5,1-3.4,0l-9-9c0.4,0.4,1,0.8,1.5,1.1
				c0.2,0.1,0.5,0.2,0.7,0.3c0.2,0.1,0.5,0.1,0.8,0.2c0.4,0.1,0.8,0.1,1.2,0.1s0.8,0,1.2-0.1l0.6,0.6l4.3,4.3c0.2,0.2,0.5,0.2,0.8,0
				l3.5-3.5l4.7-4.7c0.8-0.8,1.1-2,0.8-3.2c-0.1-0.5-0.4-1.1-0.8-1.5c-0.6-0.6-1.4-1-2.3-1c-0.1,0-0.2,0-0.4,0h0
				c-0.7,0.1-1.3,0.4-1.7,0.8c0,0-0.1,0-0.1,0.1l-1.5,1.5l-0.6,0.6l0,0l-1.3,1.3L19,31.6l-0.5,0.5l0,0c-0.6,0.6-1.4,1.1-2.2,1.4
				c-0.2,0.1-0.5,0.1-0.8,0.2l-7.1-7c0-0.2,0.1-0.5,0.2-0.8C8.8,25.4,9,25,9.2,24.6c0.2-0.3,0.5-0.6,0.8-0.9l3.3-3.3
				c0.1,0,0.3,0.1,0.4,0.1c0.4,0.1,0.9,0.1,1.4,0.1c0.7,0,1.5-0.1,2.1-0.3l-1.1,1.1l-4.3,4.3c-0.7,0.7-1.1,1.7-0.9,2.7
				c0,0.1,0,0.3,0.1,0.4c0.1,0.5,0.4,1.1,0.8,1.5c0.5,0.5,1.2,0.8,1.9,0.9c0.1,0,0.3,0,0.4,0c0.1,0,0.3,0,0.4,0
				c0.7-0.1,1.4-0.4,1.8-0.9l1.1-1.1l0.5-0.5l0,0l2.5-2.5l1.3-1.3l0.5-0.5l0.3-0.3c0,0,0.1-0.1,0.1-0.1l0,0c1.5-1.4,3.4-1.8,5.2-1.5
				c0,0,0,0,0,0c0.2,0,0.5,0.1,0.7,0.2c0,0,0,0,0,0c0.2,0.1,0.5,0.2,0.7,0.3c0.5,0.3,1.1,0.6,1.6,1.1c0.7,0.7,1.3,1.6,1.6,2.7
				C33.2,28.3,32.9,30.1,32,31.5z"/>
		</g>
		<g>
			<g>
				<g>
					<path class="st2" d="M10,32.1l-8.9-8.9c-1-1-1-2.5,0-3.4L9,11.9c-0.4,1.3-0.5,2.6-0.1,3.9c0,0,0,0,0,0l-5.3,5.3
						c-0.2,0.2-0.2,0.5,0,0.8l4.9,4.9c-0.2,0.9-0.2,1.8,0,2.8C8.8,30.5,9.3,31.4,10,32.1z"/>
					<path class="st3" d="M10,32.1l-2-2c0-0.1-0.1-0.3-0.1-0.4c-0.2-1-0.3-2-0.1-3.1l0.1-0.4l0.6,0.6c-0.2,0.9-0.2,1.8,0,2.8
						C8.8,30.5,9.3,31.4,10,32.1z"/>
					<path class="st3" d="M15.5,33.8l0.6,0.6l-0.4,0.1c-0.4,0.1-0.9,0.1-1.4,0.1c-0.5,0-0.9,0-1.4-0.1c-0.2,0-0.5-0.1-0.8-0.2l-2-2
						c0.4,0.4,1,0.8,1.5,1.1c0.2,0.1,0.5,0.2,0.7,0.3c0.2,0.1,0.5,0.1,0.8,0.2c0.4,0.1,0.8,0.1,1.2,0.1
						C14.7,33.9,15.1,33.9,15.5,33.8z"/>
					<path class="st2" d="M15.5,33.8c-0.4,0.1-0.8,0.1-1.2,0.1s-0.8,0-1.2-0.1c-0.2,0-0.5-0.1-0.8-0.2c-0.2-0.1-0.5-0.2-0.7-0.3
						c-0.5-0.2-1.1-0.6-1.5-1.1L10,32.1c-0.7-0.7-1.2-1.6-1.5-2.6c-0.2-0.9-0.2-1.8,0-2.8L15.5,33.8z"/>
					<path class="st0" d="M33.8,15.6c0,0.2-0.1,0.5-0.2,0.8c-0.1,0.5-0.4,0.9-0.6,1.3c-0.2,0.3-0.5,0.6-0.8,0.9l-3.3,3.3
						c-0.1,0-0.3-0.1-0.4-0.1c-1.2-0.2-2.4-0.2-3.5,0.2l0.7-0.7l4.7-4.7c0.7-0.7,1.1-1.7,0.9-2.7c0-0.1,0-0.3-0.1-0.4
						c-0.1-0.5-0.4-1.1-0.8-1.5c-0.5-0.5-1.2-0.8-1.9-0.9c-0.1,0-0.3,0-0.4,0c-0.1,0-0.3,0-0.4,0c-0.7,0.1-1.4,0.4-1.8,0.9l-1.5,1.5
						L23.7,14l0,0l-2.1,2.1L20,17.7l-0.5,0.5l0,0c0,0-0.1,0.1-0.1,0.1c-1.1,1-2.5,1.6-4,1.6c-0.4,0-0.8,0-1.2-0.1c0,0,0,0,0,0
						c-0.2,0-0.5-0.1-0.7-0.2c0,0,0,0,0,0c-0.2-0.1-0.5-0.2-0.7-0.3c-0.5-0.3-1.1-0.7-1.6-1.1c-0.7-0.7-1.3-1.6-1.6-2.7
						C9,14,9.3,12.2,10.2,10.9c0.2-0.3,0.5-0.6,0.8-0.9l5.4-5.4l3.4-3.4c1-1,2.5-1,3.4,0l9,9c-0.5-0.5-1-0.8-1.5-1.1
						C30.4,9,30.2,8.9,30,8.8c-0.2-0.1-0.5-0.1-0.8-0.2c-0.8-0.2-1.6-0.2-2.4,0l-4.9-4.9c-0.2-0.2-0.5-0.2-0.8,0l-3.9,3.9l-4.3,4.3
						c-0.8,0.8-1.1,2-0.8,3.2c0.1,0.5,0.4,1.1,0.8,1.5c0.6,0.6,1.4,1,2.3,1c0.1,0,0.2,0,0.4,0h0c0.6-0.1,1.3-0.4,1.7-0.8
						c0,0,0.1,0,0.1-0.1l1.1-1.1l0.5-0.5l0,0l1.6-1.6l2.1-2.1l0.5-0.5l0.3-0.3c0.6-0.6,1.4-1.1,2.2-1.4c0.2-0.1,0.5-0.1,0.8-0.2
						L33.8,15.6z"/>
					<path class="st4" d="M34.5,15.7l-0.1,0.4l-0.6-0.5c0.2-0.9,0.2-1.8,0-2.8c-0.2-1-0.8-1.9-1.5-2.6l2,2c0,0.1,0.1,0.3,0.1,0.4
						C34.6,13.6,34.6,14.7,34.5,15.7z"/>
					<path class="st4" d="M26.7,8.5l-0.6-0.6l0.4-0.1C27,7.7,27.5,7.7,28,7.7c0.5,0,0.9,0,1.4,0.1c0.2,0,0.5,0.1,0.8,0.2l2,2
						c-0.5-0.5-1-0.8-1.5-1.1c-0.2-0.1-0.5-0.2-0.7-0.3c-0.2-0.1-0.5-0.1-0.8-0.2C28.4,8.3,27.6,8.3,26.7,8.5z"/>
					<path class="st0" d="M33.8,15.6l-7-7.1c0.8-0.2,1.6-0.2,2.4,0c0.2,0,0.5,0.1,0.8,0.2c0.2,0.1,0.5,0.2,0.7,0.3
						c0.5,0.2,1.1,0.6,1.5,1.1l0.1,0.1c0.7,0.7,1.2,1.6,1.5,2.6C34,13.7,34,14.6,33.8,15.6z"/>
				</g>
			</g>
		</g>
	</g>
</g>
<text transform="matrix(1 0 0 1 44.8701 18.2534)" class="st5"><tspan x="0" y="0" class="st6 st7 st8">Sigma </tspan><tspan x="0" y="10.3" class="st6 st7 st8">Solutions</tspan></text>
</svg>
