<?xml version="1.0" encoding="utf-8"?>
<!-- Generator: Adobe Illustrator 22.0.0, SVG Export Plug-In . SVG Version: 6.00 Build 0)  -->
<svg version="1.1" id="Layer_1" xmlns="http://www.w3.org/2000/svg" xmlns:xlink="http://www.w3.org/1999/xlink" x="0px" y="0px"
	 viewBox="0 0 85 85" style="enable-background:new 0 0 85 85;" xml:space="preserve">
<style type="text/css">
	.st0{fill:#07B2E7;}
	.st1{fill:#1F1E21;}
	.st2{fill:#167FC0;}
	.st3{fill:#1E4995;}
	.st4{fill:#3C93D0;}
</style>
<g>
	<path class="st0" d="M81.3,45.1L66.1,60.3c0.8-2.4,0.9-5,0.3-7.5c0-0.1,0-0.1-0.1-0.1l10.3-10.2c0.4-0.4,0.4-1,0-1.5l-8.4-8.3
		l-1.1-1c0.4-1.8,0.4-3.6-0.1-5.3c-0.5-1.9-1.5-3.7-2.9-5.1l3.8,3.8l13.4,13.4C83.1,40.2,83.1,43.2,81.3,45.1z"/>
	<g>
		<g>
			<path class="st1" d="M64,21.2L63.8,21L64,21.2C64,21.1,64,21.1,64,21.2z"/>
			<path class="st2" d="M63.5,62.5c-0.4,0.7-0.9,1.2-1.5,1.8L51,75.3l-5.8,5.8c-1.9,1.9-4.8,1.9-6.7,0L21.2,63.8
				c0.8,0.8,1.9,1.6,2.9,2.1c0.5,0.2,0.9,0.4,1.3,0.6c0.4,0.2,0.9,0.3,1.5,0.4c0.8,0.2,1.6,0.2,2.3,0.2c0.8,0,1.6-0.1,2.3-0.2
				l1.1,1.1l8.3,8.3c0.4,0.4,1,0.4,1.5,0l6.8-6.8l9-9c1.6-1.6,2.2-3.9,1.6-6.1c-0.3-1-0.8-2.1-1.6-2.8c-1.2-1.2-2.7-1.9-4.4-1.9
				c-0.3,0-0.5,0-0.8,0.1h-0.1c-1.3,0.2-2.4,0.8-3.4,1.6c-0.1,0.1-0.2,0.1-0.2,0.2l-2.8,2.8l-1.1,1.1l0,0l-2.4,2.4l-4.8,4.8l-1,1
				l0,0c-1.2,1.2-2.7,2.2-4.2,2.7c-0.5,0.2-0.9,0.3-1.5,0.4L18,53.2c0.1-0.5,0.2-0.9,0.4-1.5c0.3-0.9,0.8-1.8,1.2-2.5
				c0.4-0.7,0.9-1.2,1.5-1.8l6.5-6.5c0.3,0.1,0.6,0.2,0.8,0.2c0.8,0.2,1.8,0.3,2.6,0.3c1.4,0,2.8-0.2,4.1-0.7L33,42.9l-8.3,8.3
				c-1.4,1.4-2.1,3.3-1.8,5.3c0.1,0.3,0.1,0.6,0.2,0.8c0.3,1,0.8,2.1,1.6,2.8c1,1,2.3,1.6,3.7,1.8C28.6,62,28.8,62,29,62
				c0.3,0,0.6,0,0.8-0.1c1.3-0.2,2.6-0.8,3.6-1.8l2.2-2.2l1-1l0,0l4.8-4.8l2.4-2.4l1-1l0.7-0.7c0.1-0.1,0.2-0.2,0.3-0.3l0,0
				c2.8-2.6,6.7-3.6,10.1-2.8c0,0,0,0,0.1,0c0.5,0.1,0.9,0.2,1.4,0.4c0,0,0,0,0.1,0c0.5,0.2,0.9,0.4,1.3,0.6c1,0.6,2.1,1.2,3,2.2
				c1.4,1.4,2.4,3.2,3,5.2C65.9,56.3,65.3,59.7,63.5,62.5z"/>
		</g>
		<g>
			<g>
				<g>
					<path class="st2" d="M21.1,63.7L3.8,46.4c-1.9-1.9-1.9-4.8,0-6.7L19,24.6c-0.8,2.4-0.9,5-0.3,7.5c0,0.1,0,0.1,0.1,0.1L8.6,42.4
						c-0.4,0.4-0.4,1,0,1.5l9.5,9.5c-0.4,1.8-0.4,3.6,0.1,5.3C18.7,60.6,19.7,62.3,21.1,63.7z"/>
					<path class="st3" d="M21.1,63.7l-3.8-3.8C17.1,59.5,17,59.3,17,59c-0.5-1.9-0.6-3.9-0.2-5.9l0.2-0.8l1.1,1.1
						c-0.4,1.8-0.4,3.6,0.1,5.3C18.7,60.6,19.7,62.3,21.1,63.7z"/>
					<path class="st3" d="M31.7,66.9l1.1,1.1l-0.8,0.2c-0.8,0.2-1.8,0.3-2.6,0.3c-0.9,0-1.8-0.1-2.6-0.3c-0.5-0.1-1-0.2-1.5-0.4
						l-3.9-3.9c0.8,0.8,1.9,1.6,2.9,2.1c0.5,0.2,0.9,0.4,1.3,0.6c0.5,0.2,0.9,0.3,1.5,0.4c0.8,0.2,1.6,0.2,2.3,0.2
						C30.1,67.1,30.9,67,31.7,66.9z"/>
					<path class="st2" d="M31.7,66.9C30.9,67,30.1,67,29.3,67S27.7,67,27,66.9c-0.5-0.1-0.9-0.2-1.5-0.4c-0.5-0.2-0.9-0.4-1.3-0.6
						c-1-0.5-2.1-1.2-2.9-2.1l-0.2-0.2c-1.4-1.4-2.3-3.2-2.9-5.1c-0.5-1.8-0.5-3.6-0.1-5.3L31.7,66.9z"/>
					<path class="st0" d="M67,31.6c-0.1,0.5-0.2,0.9-0.4,1.5c-0.3,0.9-0.8,1.8-1.2,2.5c-0.5,0.7-0.9,1.2-1.5,1.8l-6.5,6.4
						c-0.3-0.1-0.6-0.2-0.8-0.2c-2.3-0.5-4.6-0.4-6.8,0.4l1.3-1.3l9-9c1.4-1.4,2.1-3.3,1.8-5.3c-0.1-0.3-0.1-0.6-0.2-0.8
						c-0.3-1-0.8-2.1-1.6-2.8c-1-1-2.3-1.6-3.7-1.8c-0.3-0.1-0.6-0.1-0.8-0.1c-0.3,0-0.6,0-0.8,0.1c-1.3,0.2-2.6,0.8-3.6,1.8
						l-2.8,2.8l-1,1l0,0l-4.1,4.1l-3.1,3.1l-1,1l0,0c-0.1,0.1-0.2,0.2-0.3,0.3c-2.2,2-4.9,3.1-7.8,3.1c-0.8,0-1.6-0.1-2.3-0.2
						c0,0,0,0-0.1,0c-0.5-0.1-0.9-0.2-1.4-0.4c0,0,0,0-0.1,0c-0.5-0.2-0.9-0.4-1.3-0.6c-1-0.6-2.1-1.3-3-2.2c-1.4-1.4-2.4-3.2-3-5.2
						c-0.8-3.2-0.3-6.7,1.5-9.3c0.4-0.7,0.9-1.2,1.5-1.8l10.4-10.4l6.6-6.6c1.9-1.9,4.8-1.9,6.7,0l17.3,17.3C63,20.2,62,19.5,61,19
						c-0.5-0.2-0.9-0.4-1.3-0.6c-0.5-0.2-0.9-0.3-1.5-0.4c-1.6-0.4-3.2-0.4-4.7,0L44,8.5c-0.4-0.4-1-0.4-1.5,0L34.9,16l-8.3,8.3
						C25,26,24.4,28.3,25,30.5c0.3,1,0.8,2.1,1.6,2.8c1.2,1.2,2.7,1.9,4.4,1.9c0.3,0,0.5,0,0.8-0.1h0.1c1.2-0.2,2.4-0.8,3.4-1.6
						c0.1-0.1,0.2-0.1,0.2-0.2l2.2-2.2l1-1l0,0l3.1-3.1l4.1-4.1l1-1l0.7-0.7c1.2-1.2,2.7-2.2,4.3-2.7c0.5-0.2,0.9-0.3,1.5-0.4
						L67,31.6z"/>
					<path class="st4" d="M68.3,31.9l-0.2,0.8l-1.1-1c0.4-1.8,0.4-3.6-0.1-5.3c-0.5-1.9-1.5-3.7-2.9-5.1l3.8,3.8
						c0.1,0.3,0.2,0.6,0.2,0.8C68.7,27.8,68.7,29.9,68.3,31.9z"/>
					<path class="st4" d="M53.4,17.9l-1.1-1.1l0.8-0.2c0.8-0.2,1.8-0.3,2.6-0.3c0.9,0,1.8,0.1,2.6,0.3c0.5,0.1,1,0.2,1.5,0.4
						l3.9,3.9c-0.9-0.9-1.9-1.6-2.9-2.1c-0.5-0.2-0.9-0.4-1.3-0.6c-0.5-0.2-0.9-0.3-1.5-0.4C56.6,17.6,55,17.6,53.4,17.9z"/>
					<path class="st0" d="M67,31.6L53.4,17.9c1.6-0.4,3.2-0.4,4.7,0c0.5,0.1,0.9,0.2,1.5,0.4c0.5,0.2,0.9,0.4,1.3,0.6
						c1,0.5,2.1,1.2,2.9,2.1l0.2,0.2c1.4,1.4,2.3,3.2,2.9,5.1C67.4,27.9,67.4,29.8,67,31.6z"/>
				</g>
			</g>
		</g>
	</g>
</g>
</svg>
