<?xml version="1.0" encoding="utf-8"?>
<!-- Generator: Adobe Illustrator 22.0.0, SVG Export Plug-In . SVG Version: 6.00 Build 0)  -->
<svg version="1.1" id="Layer_1" xmlns="http://www.w3.org/2000/svg" xmlns:xlink="http://www.w3.org/1999/xlink" x="0px" y="0px"
	 viewBox="0 0 141.7 113.4" style="enable-background:new 0 0 141.7 113.4;" xml:space="preserve">
<style type="text/css">
	.st0{fill:#E6E6E5;}
	.st1{font-family:'SitkaText-Bold';}
	.st2{font-size:17.5731px;}
</style>
<g>
	<g>
		<path class="st0" d="M111.6,47L95.5,63.2c0.9-2.5,1-5.3,0.3-7.9c0-0.1,0-0.1-0.1-0.1l10.8-10.8c0.4-0.4,0.4-1.2,0-1.6l-8.9-8.9
			l-1.2-1.2c0.4-1.9,0.3-3.8-0.2-5.7c-0.5-2-1.6-3.9-3.1-5.3l4.1,4.1L111.6,40C113.5,41.9,113.5,45.1,111.6,47z"/>
		<path class="st0" d="M93.3,21.7l-0.2-0.2l0.1,0.1C93.2,21.6,93.3,21.6,93.3,21.7z"/>
		<path class="st0" d="M92.9,65.4c-0.5,0.7-1,1.3-1.6,1.9L79.5,79.2l-6.1,6.1c-2,2-5.1,2-7.1,0L47.9,66.9c0.9,0.9,2,1.7,3.1,2.2
			c0.5,0.2,0.9,0.5,1.4,0.6c0.5,0.2,1,0.3,1.6,0.4c0.8,0.2,1.6,0.2,2.5,0.2s1.7-0.1,2.5-0.2l1.2,1.2l8.9,8.9c0.4,0.4,1.2,0.4,1.6,0
			l7.2-7.2l9.6-9.6c1.7-1.7,2.3-4.1,1.7-6.4c-0.3-1.1-0.9-2.1-1.7-3c-1.3-1.3-3-2-4.7-2c-0.3,0-0.6,0-0.8,0.1h-0.1
			c-1.3,0.2-2.6,0.8-3.6,1.7c-0.1,0.1-0.2,0.1-0.2,0.2l-3,3l-1.2,1.2l0,0l-2.5,2.5l-5.1,5.1l-1.1,1.1l0,0c-1.3,1.3-2.8,2.3-4.6,2.8
			c-0.5,0.2-1,0.3-1.5,0.4L44.6,55.7c0.1-0.5,0.2-1,0.4-1.5c0.3-0.9,0.8-1.9,1.3-2.7c0.5-0.7,1-1.3,1.6-1.9l6.8-6.8
			c0.3,0.1,0.6,0.2,0.9,0.2c0.9,0.2,1.9,0.3,2.8,0.3c1.5,0,3-0.2,4.3-0.7l-2.2,2.2l-8.8,8.8c-1.4,1.4-2.1,3.5-1.9,5.6
			c0.1,0.3,0.1,0.6,0.2,0.9c0.3,1.1,0.9,2.1,1.7,3c1,1,2.4,1.7,3.8,1.9c0.3,0.1,0.6,0.1,0.9,0.1c0.3,0,0.6,0,0.9-0.1
			c1.4-0.2,2.8-0.9,3.8-1.9l2.3-2.3l1.2-1.2l0,0l5.1-5.1l2.5-2.5l1.2-1.2l0.7-0.7c0.1-0.1,0.2-0.2,0.3-0.3l0,0c3-2.8,7.1-3.8,10.8-3
			c0,0,0,0,0.1,0c0.5,0.1,1,0.2,1.5,0.4c0,0,0,0,0.1,0c0.5,0.2,0.9,0.3,1.4,0.6c1.2,0.6,2.2,1.3,3.1,2.3c1.5,1.5,2.6,3.4,3.1,5.4
			C95.3,58.9,94.7,62.6,92.9,65.4z"/>
		<path class="st0" d="M47.7,66.8L29.4,48.5c-2-2-2-5.1,0-7.1l16.2-16.2c-0.9,2.5-1,5.3-0.3,7.9c0,0.1,0,0.1,0.1,0.1L34.5,44.1
			c-0.4,0.4-0.4,1.2,0,1.6l10,10c-0.4,1.9-0.3,3.8,0.2,5.7C45.2,63.5,46.3,65.3,47.7,66.8z"/>
		<path class="st0" d="M47.7,66.8l-4.1-4.1c-0.1-0.3-0.2-0.6-0.3-0.9c-0.6-2-0.6-4.2-0.2-6.3l0.2-0.9l1.2,1.2
			c-0.4,1.9-0.3,3.8,0.2,5.7C45.2,63.5,46.3,65.3,47.7,66.8z"/>
		<path class="st0" d="M59,70.2l1.2,1.2l-0.9,0.2c-0.9,0.2-1.9,0.3-2.8,0.3c-0.9,0-1.9-0.1-2.8-0.3c-0.5-0.1-1.1-0.2-1.6-0.5
			l-4.2-4.2c0.9,0.9,2,1.7,3.1,2.2c0.5,0.2,0.9,0.5,1.4,0.6c0.5,0.2,1,0.3,1.6,0.4c0.8,0.2,1.6,0.2,2.5,0.2
			C57.3,70.5,58.1,70.4,59,70.2z"/>
		<path class="st0" d="M59,70.2c-0.8,0.2-1.7,0.2-2.5,0.2c-0.9,0-1.7-0.1-2.5-0.2c-0.5-0.1-1-0.2-1.6-0.4c-0.5-0.2-1-0.3-1.4-0.6
			c-1.1-0.6-2.1-1.3-3.1-2.2l-0.2-0.2c-1.4-1.5-2.5-3.4-3.1-5.4c-0.5-1.9-0.5-3.8-0.2-5.7L59,70.2z"/>
		<path class="st0" d="M96.5,32.7c-0.1,0.5-0.2,1-0.4,1.5c-0.3,0.9-0.8,1.9-1.3,2.7c-0.5,0.7-1,1.3-1.6,1.9l-6.9,6.9
			c-0.3-0.1-0.6-0.2-0.9-0.2c-2.4-0.5-4.9-0.3-7.1,0.4l1.4-1.4l9.6-9.6c1.4-1.4,2.1-3.5,1.9-5.6c-0.1-0.3-0.1-0.6-0.2-0.9
			c-0.3-1.1-0.9-2.1-1.7-3c-1-1-2.4-1.7-3.8-1.9c-0.3-0.1-0.6-0.1-0.9-0.1s-0.6,0-0.9,0.1c-1.4,0.2-2.8,0.9-3.8,1.9l-3,3l-1.2,1.2
			l0,0l-4.4,4.3l-3.3,3.3L67,38.3l0,0c-0.1,0.1-0.2,0.2-0.3,0.3c-2.3,2.1-5.2,3.2-8.3,3.2c-0.9,0-1.7-0.1-2.5-0.2c0,0,0,0-0.1,0
			c-0.5-0.1-1-0.2-1.5-0.4c0,0,0,0-0.1,0c-0.5-0.2-0.9-0.3-1.4-0.6c-1.2-0.6-2.2-1.3-3.1-2.3c-1.5-1.5-2.6-3.4-3.1-5.4
			c-0.9-3.4-0.3-7,1.6-9.9c0.5-0.7,1-1.3,1.6-1.9l11-11.1l6.9-6.9c2-2,5.1-2,7.1,0l18.4,18.4c-0.9-0.9-2-1.7-3.1-2.2
			c-0.5-0.2-0.9-0.5-1.4-0.6c-0.5-0.2-1-0.3-1.6-0.4c-1.6-0.3-3.4-0.3-5,0l-10-10c-0.4-0.4-1.2-0.4-1.6,0l-8,8L53.7,25
			c-1.7,1.7-2.3,4.1-1.7,6.4c0.3,1.1,0.9,2.1,1.7,3c1.3,1.3,3,2,4.7,2c0.3,0,0.6,0,0.8-0.1h0.1c1.3-0.2,2.5-0.8,3.6-1.7
			c0.1-0.1,0.2-0.1,0.2-0.2l2.3-2.3l1.2-1.2l0,0l3.3-3.3l4.4-4.3l1.2-1.2l0.7-0.7c1.3-1.3,2.9-2.3,4.6-2.9c0.5-0.2,1-0.3,1.6-0.4
			L96.5,32.7z"/>
		<path class="st0" d="M97.8,33l-0.2,0.9l-1.2-1.2c0.4-1.9,0.3-3.8-0.2-5.7c-0.5-2-1.6-3.9-3.1-5.3l4.1,4.1c0.1,0.3,0.2,0.6,0.3,0.9
			C98.2,28.7,98.3,30.9,97.8,33z"/>
		<path class="st0" d="M82.1,18.3l-1.2-1.2l0.9-0.2c0.9-0.2,1.9-0.3,2.8-0.3s1.9,0.1,2.8,0.3c0.5,0.1,1.1,0.2,1.6,0.5l4.2,4.2
			c-0.9-0.9-2-1.7-3.1-2.2c-0.5-0.2-0.9-0.5-1.4-0.6c-0.5-0.2-1-0.3-1.6-0.4C85.4,17.9,83.7,17.9,82.1,18.3z"/>
		<path class="st0" d="M96.5,32.7L82.1,18.3c1.6-0.3,3.4-0.3,5,0c0.5,0.1,1,0.2,1.6,0.4c0.5,0.2,1,0.3,1.4,0.6
			c1.1,0.6,2.1,1.3,3.1,2.2l0.2,0.2c1.4,1.5,2.5,3.4,3.1,5.3C96.9,28.9,96.9,30.8,96.5,32.7z"/>
	</g>
	<text transform="matrix(1 0 0 1 0 104.0566)" class="st0 st1 st2">Sigma Solutions</text>
</g>
</svg>
