<?xml version="1.0" encoding="utf-8"?>
<!-- Generator: Adobe Illustrator 22.0.0, SVG Export Plug-In . SVG Version: 6.00 Build 0)  -->
<svg version="1.1" id="Layer_1" xmlns="http://www.w3.org/2000/svg" xmlns:xlink="http://www.w3.org/1999/xlink" x="0px" y="0px"
	 viewBox="0 0 32 32" style="enable-background:new 0 0 32 32;" xml:space="preserve">
<style type="text/css">
	.st0{fill:#07B2E7;}
	.st1{fill:#1F1E21;}
	.st2{fill:#167FC0;}
	.st3{fill:#1E4995;}
	.st4{fill:#3C93D0;}
</style>
<g>
	<path class="st0" d="M30.5,17.3l-5.7,5.7c0.3-0.9,0.4-1.9,0.1-2.8c0,0,0,0,0,0l3.9-3.8c0.1-0.1,0.1-0.4,0-0.6l-3.2-3.1l-0.4-0.4
		c0.1-0.7,0.1-1.3,0-2c-0.2-0.7-0.6-1.4-1.1-1.9l1.4,1.4l5,5C31.2,15.4,31.2,16.6,30.5,17.3z"/>
	<g>
		<g>
			<path class="st1" d="M24.1,8.3L24.1,8.3L24.1,8.3C24.1,8.3,24.1,8.3,24.1,8.3z"/>
			<path class="st2" d="M23.9,23.7c-0.1,0.2-0.4,0.5-0.6,0.7l-4.1,4.1L17,30.7c-0.7,0.7-1.8,0.7-2.5,0L8,24.2
				c0.3,0.3,0.7,0.6,1.1,0.8c0.2,0.1,0.4,0.1,0.5,0.2s0.4,0.1,0.6,0.1c0.3,0.1,0.6,0.1,0.9,0.1s0.6,0,0.9-0.1l0.4,0.4l3.1,3.1
				c0.1,0.1,0.4,0.1,0.6,0l2.6-2.6L22,23c0.6-0.6,0.8-1.5,0.6-2.3c-0.1-0.4-0.3-0.8-0.6-1.1c-0.5-0.5-1-0.7-1.6-0.7
				c-0.1,0-0.2,0-0.3,0h0c-0.5,0.1-0.9,0.3-1.3,0.6c0,0-0.1,0-0.1,0.1l-1.1,1.1l-0.4,0.4l0,0L16.3,22l-1.8,1.8l-0.4,0.4l0,0
				c-0.5,0.5-1,0.8-1.6,1c-0.2,0.1-0.4,0.1-0.6,0.1l-5.1-5.1c0-0.2,0.1-0.4,0.1-0.6c0.1-0.4,0.3-0.7,0.5-0.9
				c0.1-0.2,0.4-0.5,0.6-0.7l2.4-2.4c0.1,0,0.2,0.1,0.3,0.1c0.3,0.1,0.7,0.1,1,0.1c0.5,0,1.1-0.1,1.5-0.2l-0.8,0.8l-3.1,3.1
				c-0.5,0.5-0.8,1.2-0.7,2c0,0.1,0,0.2,0.1,0.3c0.1,0.4,0.3,0.8,0.6,1.1c0.4,0.4,0.8,0.6,1.4,0.7c0.1,0,0.2,0,0.3,0
				c0.1,0,0.2,0,0.3,0c0.5-0.1,1-0.3,1.3-0.7l0.8-0.8l0.4-0.4l0,0l1.8-1.8l0.9-0.9l0.4-0.4l0.2-0.2c0,0,0.1-0.1,0.1-0.1l0,0
				c1.1-1,2.5-1.3,3.8-1.1c0,0,0,0,0,0c0.2,0,0.4,0.1,0.5,0.1c0,0,0,0,0,0c0.2,0.1,0.4,0.1,0.5,0.2c0.4,0.2,0.8,0.5,1.1,0.8
				c0.5,0.5,0.9,1.2,1.1,1.9C24.8,21.4,24.5,22.7,23.9,23.7z"/>
		</g>
		<g>
			<g>
				<g>
					<path class="st2" d="M8,24.2l-6.5-6.5c-0.7-0.7-0.7-1.8,0-2.5l5.7-5.7c-0.3,0.9-0.4,1.9-0.1,2.8c0,0,0,0,0,0l-3.8,3.8
						c-0.1,0.1-0.1,0.4,0,0.6l3.5,3.5c-0.1,0.7-0.1,1.3,0,2C7.1,23,7.5,23.7,8,24.2z"/>
					<path class="st3" d="M8,24.2l-1.4-1.4c0-0.1-0.1-0.2-0.1-0.3c-0.2-0.7-0.2-1.5-0.1-2.2l0.1-0.3l0.4,0.4c-0.1,0.7-0.1,1.3,0,2
						C7.1,23,7.5,23.7,8,24.2z"/>
					<path class="st3" d="M12,25.4l0.4,0.4l-0.3,0.1c-0.3,0.1-0.7,0.1-1,0.1c-0.4,0-0.7,0-1-0.1c-0.2,0-0.4-0.1-0.6-0.1l-1.5-1.5
						c0.3,0.3,0.7,0.6,1.1,0.8c0.2,0.1,0.4,0.1,0.5,0.2c0.2,0.1,0.4,0.1,0.6,0.1c0.3,0.1,0.6,0.1,0.9,0.1
						C11.4,25.5,11.7,25.5,12,25.4z"/>
					<path class="st2" d="M12,25.4c-0.3,0.1-0.6,0.1-0.9,0.1c-0.3,0-0.6,0-0.9-0.1c-0.2,0-0.4-0.1-0.6-0.1c-0.2-0.1-0.4-0.1-0.5-0.2
						c-0.4-0.2-0.8-0.5-1.1-0.8L8,24.2c-0.5-0.5-0.9-1.2-1.1-1.9c-0.2-0.7-0.2-1.3,0-2L12,25.4z"/>
					<path class="st0" d="M25.2,12.2c0,0.2-0.1,0.4-0.1,0.6c-0.1,0.4-0.3,0.7-0.5,0.9c-0.2,0.2-0.4,0.5-0.6,0.7l-2.4,2.4
						c-0.1,0-0.2-0.1-0.3-0.1c-0.9-0.2-1.7-0.1-2.5,0.1l0.5-0.5l3.4-3.4c0.5-0.5,0.8-1.2,0.7-2c0-0.1,0-0.2-0.1-0.3
						c-0.1-0.4-0.3-0.8-0.6-1.1C22.2,9.3,21.8,9,21.3,9c-0.1,0-0.2,0-0.3,0c-0.1,0-0.2,0-0.3,0c-0.5,0.1-1,0.3-1.3,0.7l-1.1,1.1
						l-0.4,0.4l0,0l-1.5,1.5l-1.2,1.2l-0.4,0.4l0,0c0,0-0.1,0.1-0.1,0.1c-0.8,0.7-1.8,1.2-2.9,1.2c-0.3,0-0.6,0-0.9-0.1c0,0,0,0,0,0
						c-0.2,0-0.4-0.1-0.5-0.1c0,0,0,0,0,0c-0.2-0.1-0.4-0.1-0.5-0.2c-0.4-0.2-0.8-0.5-1.1-0.8c-0.5-0.5-0.9-1.2-1.1-1.9
						c-0.3-1.2-0.1-2.5,0.6-3.5c0.1-0.2,0.4-0.5,0.6-0.7l3.9-3.9L15,1.8c0.7-0.7,1.8-0.7,2.5,0L24,8.3c-0.4-0.4-0.7-0.6-1.1-0.8
						c-0.2-0.1-0.4-0.1-0.5-0.2c-0.2-0.1-0.4-0.1-0.6-0.1c-0.6-0.1-1.2-0.1-1.8,0l-3.5-3.6c-0.1-0.1-0.4-0.1-0.6,0l-2.8,2.8
						l-3.1,3.1c-0.6,0.6-0.8,1.5-0.6,2.3c0.1,0.4,0.3,0.8,0.6,1.1c0.5,0.5,1,0.7,1.6,0.7c0.1,0,0.2,0,0.3,0h0
						c0.5-0.1,0.9-0.3,1.3-0.6c0,0,0.1,0,0.1-0.1l0.8-0.8l0.4-0.4l0,0l1.2-1.2l1.5-1.5l0.4-0.4l0.2-0.2c0.5-0.5,1-0.8,1.6-1
						c0.2-0.1,0.4-0.1,0.6-0.1L25.2,12.2z"/>
					<path class="st4" d="M25.7,12.3l-0.1,0.3l-0.4-0.4c0.1-0.7,0.1-1.3,0-2c-0.2-0.7-0.6-1.4-1.1-1.9l1.4,1.4
						c0,0.1,0.1,0.2,0.1,0.3C25.8,10.8,25.8,11.6,25.7,12.3z"/>
					<path class="st4" d="M20.1,7.1l-0.4-0.4L20,6.6c0.3-0.1,0.7-0.1,1-0.1c0.4,0,0.7,0,1,0.1c0.2,0,0.4,0.1,0.6,0.1L24,8.2
						c-0.4-0.4-0.7-0.6-1.1-0.8c-0.2-0.1-0.4-0.1-0.5-0.2c-0.2-0.1-0.4-0.1-0.6-0.1C21.3,7,20.7,7,20.1,7.1z"/>
					<path class="st0" d="M25.2,12.2l-5.1-5.1c0.6-0.1,1.2-0.1,1.8,0c0.2,0,0.4,0.1,0.6,0.1c0.2,0.1,0.4,0.1,0.5,0.2
						c0.4,0.2,0.8,0.5,1.1,0.8l0.1,0.1c0.5,0.5,0.9,1.2,1.1,1.9C25.3,10.8,25.3,11.5,25.2,12.2z"/>
				</g>
			</g>
		</g>
	</g>
</g>
</svg>
