<svg xmlns="http://www.w3.org/2000/svg" height="800" width="1200" viewBox="-61.338 -16.71225 531.596 100.2735"><path d="M16.567 66.849c-6.491 0-10.878-1.105-13.151-3.318C1.139 61.322 0 57.164 0 51.052v-13.87l15.682-2.978v20.083h30.536V0h15.589v51.051c0 6.112-1.152 10.271-3.453 12.479-2.301 2.213-6.686 3.316-13.147 3.316zm61.555 0L115.908.001h14.979l38.293 66.848h-17.44l-11.738-21.81-38.438 7.108-2.125 3.845-5.835 10.856zm29.888-26.684h29.258L122.86 12.968zm82.678 26.684V.001h57.229c5.285 0 9.109 1.038 11.479 3.106 2.37 2.069 3.551 5.364 3.551 9.883v8.121c0 3.198-.988 5.751-2.963 7.666-1.979 1.914-4.814 3.104-8.514 3.565 3.84.507 6.806 1.88 8.895 4.115 2.09 2.241 3.133 5.152 3.133 8.743v8.559c0 4.428-1.631 7.715-4.889 9.863-3.259 2.15-8.211 3.227-14.855 3.227zm50.73-55.936h-35.416v15.864h35.416c2.693 0 4.556-.355 5.586-1.072 1.031-.711 1.547-1.949 1.547-3.714v-6.293c0-1.719-.516-2.949-1.547-3.685-1.033-.733-2.893-1.1-5.586-1.1m0 26.868h-35.416v17.056h35.416c2.979 0 4.986-.441 6.029-1.33 1.041-.889 1.562-2.456 1.562-4.694v-5.072c0-2.241-.521-3.794-1.562-4.66-1.043-.867-3.052-1.3-6.029-1.3M293.482.001h15.59v66.848h-15.59zm49.69 0h15.589v54.286h50.159v12.562h-65.748z" fill="#005288"/><path fill="#008a5e" d="M99.437 55.992l97.607-25.304-83.853-.038z"/></svg>